<svg width="94" height="24" viewBox="0 0 94 24" fill="none" xmlns="http://www.w3.org/2000/svg">
<path d="M47.5098 18H45.625V5.32422H38.6133V18H36.7383V3.78125H47.5098V18ZM50.166 12.6191C50.166 11.584 50.3678 10.653 50.7715 9.82617C51.1816 8.99935 51.748 8.36133 52.4707 7.91211C53.1999 7.46289 54.0299 7.23828 54.9609 7.23828C56.3997 7.23828 57.5618 7.73633 58.4473 8.73242C59.3392 9.72852 59.7852 11.0534 59.7852 12.707V12.834C59.7852 13.8626 59.5866 14.7871 59.1895 15.6074C58.7988 16.4212 58.2357 17.056 57.5 17.5117C56.7708 17.9674 55.931 18.1953 54.9805 18.1953C53.5482 18.1953 52.3861 17.6973 51.4941 16.7012C50.6087 15.7051 50.166 14.3867 50.166 12.7461V12.6191ZM51.9824 12.834C51.9824 14.0059 52.2526 14.9466 52.793 15.6562C53.3398 16.3659 54.069 16.7207 54.9805 16.7207C55.8984 16.7207 56.6276 16.3626 57.168 15.6465C57.7083 14.9238 57.9785 13.9147 57.9785 12.6191C57.9785 11.4603 57.7018 10.5228 57.1484 9.80664C56.6016 9.08398 55.8724 8.72266 54.9609 8.72266C54.069 8.72266 53.3496 9.07747 52.8027 9.78711C52.2559 10.4967 51.9824 11.5124 51.9824 12.834ZM68.8867 7.43359H70.6934V18H68.8867V10.2949L64.0137 18H62.207V7.43359H64.0137V15.1484L68.8867 7.43359ZM77.832 16.7207C78.4766 16.7207 79.0397 16.5254 79.5215 16.1348C80.0033 15.7441 80.2702 15.2559 80.3223 14.6699H82.0312C81.9987 15.2754 81.7904 15.8516 81.4062 16.3984C81.0221 16.9453 80.5078 17.3815 79.8633 17.707C79.2253 18.0326 78.5482 18.1953 77.832 18.1953C76.3932 18.1953 75.2474 17.7168 74.3945 16.7598C73.5482 15.7962 73.125 14.4811 73.125 12.8145V12.5117C73.125 11.4831 73.3138 10.5684 73.6914 9.76758C74.069 8.9668 74.6094 8.34505 75.3125 7.90234C76.0221 7.45964 76.8587 7.23828 77.8223 7.23828C79.0072 7.23828 79.9902 7.5931 80.7715 8.30273C81.5592 9.01237 81.9792 9.93359 82.0312 11.0664H80.3223C80.2702 10.3828 80.0098 9.82292 79.541 9.38672C79.0788 8.94401 78.5059 8.72266 77.8223 8.72266C76.9043 8.72266 76.1914 9.05469 75.6836 9.71875C75.1823 10.3763 74.9316 11.3301 74.9316 12.5801V12.9219C74.9316 14.1393 75.1823 15.0768 75.6836 15.7344C76.1849 16.3919 76.901 16.7207 77.832 16.7207ZM87.3535 13.498H86.0352V18H84.2188V7.43359H86.0352V11.9062H87.2168L90.7715 7.43359H92.959L88.7793 12.5117L93.3105 18H91.0156L87.3535 13.498Z" fill="white"/>
<path d="M22.8596 23.1821L15.8614 16.1838C17.315 14.5699 18.2084 12.442 18.2084 10.1041C18.2083 5.08416 14.1242 1 9.10418 1C4.08416 1 0 5.08416 0 10.1042C0 15.1242 4.08416 19.2084 9.10418 19.2084C11.442 19.2084 13.5699 18.315 15.1839 16.8614L22.1821 23.8596C22.2756 23.9532 22.3983 24 22.5209 24C22.6435 24 22.766 23.9532 22.8597 23.8596C23.0468 23.6724 23.0468 23.3692 22.8596 23.1821ZM9.10418 18.25C4.61294 18.25 0.958363 14.5959 0.958363 10.1042C0.958363 5.61249 4.61294 1.95832 9.10418 1.95832C13.5954 1.95832 17.25 5.61244 17.25 10.1042C17.25 14.5959 13.5954 18.25 9.10418 18.25Z" fill="white"/>
</svg>
